{
	"asset":{
		"version":"2.0",
		"generator":"Houdini GLTF 2.0 Exporter"
	},
	"accessors":[
		{
			"bufferView":0,
			"componentType":5123,
			"count":27360,
			"type":"SCALAR",
			"min":[0
			],
			"max":[27359
			]
		},
		{
			"bufferView":1,
			"componentType":5126,
			"count":27360,
			"type":"VEC3",
			"min":[-0.683802128,-0.849524856,-1.72587192
			],
			"max":[0.715879977,-0.173524782,0.341943145
			]
		},
		{
			"bufferView":2,
			"componentType":5126,
			"count":27360,
			"type":"VEC3",
			"min":[0.535391986,0.696695983,0.85799998
			],
			"max":[0.535391986,0.696695983,0.85799998
			]
		},
		{
			"bufferView":3,
			"componentType":5126,
			"count":27360,
			"type":"VEC3",
			"min":[-0.999192297,-1,-0.999192297
			],
			"max":[0.999192297,1,0.999192297
			]
		},
		{
			"bufferView":4,
			"componentType":5123,
			"count":11988,
			"type":"SCALAR",
			"min":[0
			],
			"max":[11987
			]
		},
		{
			"bufferView":5,
			"componentType":5126,
			"count":11988,
			"type":"VEC3",
			"min":[-1,-0.999780655,-3.1559999
			],
			"max":[1,0.999780655,10
			]
		},
		{
			"bufferView":6,
			"componentType":5126,
			"count":11988,
			"type":"VEC3",
			"min":[0.164000005,0,0
			],
			"max":[1,0.755087197,0.0252009872
			]
		},
		{
			"bufferView":7,
			"componentType":5126,
			"count":11988,
			"type":"VEC3",
			"min":[-1,-1,-1
			],
			"max":[1,1,1
			]
		}
	],
	"buffers":[
		{
			"uri":"tunnel_data.bin",
			"byteLength":1495224,
			"name":"main_buffer"
		}
	],
	"bufferViews":[
		{
			"buffer":0,
			"byteLength":54720,
			"target":34963
		},
		{
			"buffer":0,
			"byteOffset":54720,
			"byteLength":328320,
			"target":34962
		},
		{
			"buffer":0,
			"byteOffset":383040,
			"byteLength":328320,
			"target":34962
		},
		{
			"buffer":0,
			"byteOffset":711360,
			"byteLength":328320,
			"target":34962
		},
		{
			"buffer":0,
			"byteOffset":1039680,
			"byteLength":23976,
			"target":34963
		},
		{
			"buffer":0,
			"byteOffset":1063656,
			"byteLength":143856,
			"target":34962
		},
		{
			"buffer":0,
			"byteOffset":1207512,
			"byteLength":143856,
			"target":34962
		},
		{
			"buffer":0,
			"byteOffset":1351368,
			"byteLength":143856,
			"target":34962
		}
	],
	"nodes":[
		{
			"matrix":[-1,0,0,0,0,1,0,0,0,0,1,0,0,0,-4.80000019,1
			],
			"name":"tunnel",
			"mesh":0
		}
	],
	"meshes":[
		{
			"primitives":[
				{
					"attributes":{
						"NORMAL":3,
						"COLOR_0":2,
						"POSITION":1
					},
					"indices":0,
					"material":0
				},
				{
					"attributes":{
						"NORMAL":7,
						"COLOR_0":6,
						"POSITION":5
					},
					"indices":4,
					"material":1
				}
			]
		}
	],
	"materials":[
		{
			"name":"mat_spheres",
			"pbrMetallicRoughness":{
				"metallicFactor":0,
				"roughnessFactor":0.3
			}
		},
		{
			"name":"mat_tubes",
			"pbrMetallicRoughness":{
				"metallicFactor":0,
				"roughnessFactor":0.850000024
			}
		}
	],
	"scenes":[
		{
			"nodes":[0
			]
		}
	],
	"scene":0
}
